HIERARCHY
ROOT Hips
{
	OFFSET	0.00	0.00	0.00
	CHANNELS 6 Xposition Yposition Zposition Zrotation Xrotation Yrotation
	JOINT LeftUpLeg
	{
		OFFSET	 0.126116	-0.014019	-0.065224
		CHANNELS 3 Zrotation Xrotation Yrotation
		JOINT LeftLeg
		{
			OFFSET	 0.000000	 0.000000	 0.569914
			CHANNELS 3 Zrotation Xrotation Yrotation
			JOINT LeftFoot
			{
				OFFSET	 0.000000	 0.000000	 0.544423
				CHANNELS 3 Zrotation Xrotation Yrotation
				JOINT LeftToeBase
				{
					OFFSET	 0.000000	 0.000000	 0.207117
					CHANNELS 3 Zrotation Xrotation Yrotation
					End Site
					{
						OFFSET	 0.000000	 0.000000	 0.207117
					}
				}
			}
		}
	}
	JOINT RightUpLeg
	{
		OFFSET	-0.124023	-0.008373	-0.065224
		CHANNELS 3 Zrotation Xrotation Yrotation
		JOINT RightLeg
		{
			OFFSET	 0.000000	 0.000000	 0.570047
			CHANNELS 3 Zrotation Xrotation Yrotation
			JOINT RightFoot
			{
				OFFSET	 0.000000	 0.000000	 0.544354
				CHANNELS 3 Zrotation Xrotation Yrotation
				JOINT RightToeBase
				{
					OFFSET	 0.000000	 0.000000	 0.207540
					CHANNELS 3 Zrotation Xrotation Yrotation
					End Site
					{
						OFFSET	 0.000000	 0.000000	 0.207540
					}
				}
			}
		}
	}
	JOINT Spine
	{
		OFFSET	 0.000184	-0.007763	 0.117403
		CHANNELS 3 Zrotation Xrotation Yrotation
		JOINT Spine1
		{
			OFFSET	 0.000000	 0.000000	 0.137269
			CHANNELS 3 Zrotation Xrotation Yrotation
			JOINT Spine2
			{
				OFFSET	 0.000000	 0.000000	 0.156879
				CHANNELS 3 Zrotation Xrotation Yrotation
				JOINT LeftShoulder
				{
					OFFSET	 0.080501	-0.002496	 0.160144
					CHANNELS 3 Zrotation Xrotation Yrotation
					JOINT LeftArm
					{
						OFFSET	 0.000000	 0.000000	 0.164363
						CHANNELS 3 Zrotation Xrotation Yrotation
						JOINT LeftForeArm
						{
							OFFSET	 0.000000	 0.000000	 0.364576
							CHANNELS 3 Zrotation Xrotation Yrotation
							JOINT LeftHand
							{
								OFFSET	 0.000000	 0.000000	 0.360812
								CHANNELS 3 Zrotation Xrotation Yrotation
								JOINT LeftHandIndex1
								{
									OFFSET	 0.000000	 0.000000	 0.086006
									CHANNELS 3 Zrotation Xrotation Yrotation
									JOINT LeftHandIndex2
									{
										OFFSET	 0.000000	 0.000000	 0.047236
										CHANNELS 3 Zrotation Xrotation Yrotation
										JOINT LeftHandIndex3
										{
											OFFSET	-0.004284	-0.000551	 0.038166
											CHANNELS 3 Zrotation Xrotation Yrotation
											End Site
											{
												OFFSET	-0.004284	-0.000551	 0.038166
											}
										}
									}
								}
							}
						}
					}
				}
				JOINT Neck
				{
					OFFSET	 0.000000	 0.000000	 0.176489
					CHANNELS 3 Zrotation Xrotation Yrotation
					JOINT Head
					{
						OFFSET	 0.000000	-0.001747	 0.077940
						CHANNELS 3 Zrotation Xrotation Yrotation
						End Site
						{
							OFFSET	 0.000000	-0.001747	 0.077940
						}
					}
				}
				JOINT RightShoulder
				{
					OFFSET	-0.080363	 0.000306	 0.159706
					CHANNELS 3 Zrotation Xrotation Yrotation
					JOINT RightArm
					{
						OFFSET	 0.000000	 0.000000	 0.164196
						CHANNELS 3 Zrotation Xrotation Yrotation
						JOINT RightForeArm
						{
							OFFSET	 0.000000	 0.000000	 0.365611
							CHANNELS 3 Zrotation Xrotation Yrotation
							JOINT RightHand
							{
								OFFSET	 0.000000	 0.000000	 0.360648
								CHANNELS 3 Zrotation Xrotation Yrotation
								JOINT RightHandIndex1
								{
									OFFSET	 0.000000	 0.000000	 0.069977
									CHANNELS 3 Zrotation Xrotation Yrotation
									JOINT RightHandIndex2
									{
										OFFSET	 0.000000	 0.000000	 0.052305
										CHANNELS 3 Zrotation Xrotation Yrotation
										JOINT RightHandIndex3
										{
											OFFSET	 0.009002	-0.000782	 0.042196
											CHANNELS 3 Zrotation Xrotation Yrotation
											End Site
											{
												OFFSET	 0.009002	-0.000782	 0.042196
											}
										}
									}
								}
							}
						}
					}
				}
			}
		}
	}
}
MOTION
Frames:    9
Frame Time: 0.03333334
-0.057984	-2.245470	 1.240735	 5.230947	-0.969742	-2.879641	-0.490364	-7.785202	-171.384600	 0.987642	-28.650410	 0.304433	 23.060530	 70.387340	-26.777950	-2.369251	 31.639880	-0.070486	-6.048146	-30.387080	-176.665500	 11.240110	-51.259560	 9.411982	 16.378110	 73.658040	-13.304550	 2.358927	 33.005940	 0.103369	-5.567552	 8.560709	 1.848729	-1.507577	 1.531331	-0.761290	 1.521215	-1.907615	 0.838938	-93.999790	 59.017000	 175.250500	 28.313740	 47.083450	-19.173900	-2.209872	-3.003262	-30.245530	 0.518440	-2.243295	-7.719086	-4.867660	 19.286020	-2.789364	-3.880791	 21.482160	 2.202008	-4.807237	 5.557552	 0.146264	-0.061041	-5.088853	 0.199681	-0.528998	 2.155081	 2.626578	 89.756810	 61.676640	 179.939500	-19.988800	 53.084210	 11.776430	-1.868330	-1.977466	 9.868796	-3.751518	 12.702700	 0.218039	 6.288139	 24.393900	-0.539809	 1.945065	 44.214610	-7.046135	 0.626755	 23.833650	 3.517663
-0.059088	-2.279046	 1.241634	 6.414984	 0.523080	-3.194965	-1.491746	-7.463577	-171.292200	 1.440774	-27.879800	 0.508840	 22.268800	 70.556810	-26.305720	-2.365505	 32.246190	-0.084295	-8.451685	-33.949090	-176.583100	 12.683460	-46.559120	 9.844613	 51.449120	 80.094320	-51.534980	 2.361404	 32.635520	 0.094787	-6.844258	 7.448374	 1.809940	-1.783017	 1.053517	-0.766065	 2.215682	-1.866755	 1.151237	-94.372690	 58.945540	 174.466000	 29.117960	 44.615600	-19.955900	-3.341323	-2.773408	-34.660810	 1.086682	-4.095304	-7.867761	-4.846037	 19.813010	-2.819136	-3.850744	 21.864670	 2.171478	-4.790582	 5.753573	 0.134772	-0.004956	-5.184319	 0.315425	 0.338770	 1.983072	 2.570654	 89.555940	 61.922540	 179.455400	-18.571170	 54.032710	 10.154230	-3.671189	-1.871529	 8.037837	-4.525190	 13.103110	-0.983340	 6.237068	 21.180630	-0.622293	 2.260268	 41.481320	-7.324110	 1.313882	 20.714620	 3.189111
-0.059724	-2.307938	 1.241048	 6.606626	 0.997540	-3.562068	-1.678002	-6.080243	-171.104500	 1.576279	-26.974860	 0.555070	 21.572570	 70.398700	-25.677340	-2.356812	 33.544530	-0.114345	-6.658817	-35.546830	-175.672500	 11.999490	-42.293550	 8.662959	 101.192900	 78.405160	-102.319100	 2.350538	 34.184020	 0.131014	-7.343951	 6.815943	 2.026376	-1.848843	 1.685699	-0.715902	 2.596425	-2.121015	 1.265280	-94.493670	 58.861520	 174.222000	 28.533830	 42.922900	-20.520380	-4.099758	-2.518920	-37.784500	 0.593685	-5.142746	-7.301844	-4.824346	 20.280460	-2.833380	-3.818687	 22.268430	 2.138915	-4.765796	 6.044568	 0.117589	 0.030880	-5.295296	 0.346185	 0.750128	 1.842478	 2.535624	 89.429530	 62.039080	 179.147300	-17.151050	 54.609030	 8.312039	-5.381767	-2.010345	 7.598978	-4.899900	 12.800750	-2.682217	 6.189204	 18.655930	-0.718439	 2.582214	 38.382070	-7.602870	 1.855164	 18.146250	 2.953068
-0.061776	-2.348680	 1.238590	 6.972979	 1.017848	-3.693829	-2.208652	-3.737535	-171.268600	 1.962991	-26.225250	 0.711733	 19.030370	 68.899550	-23.324850	-2.322105	 37.711820	-0.215901	-5.608263	-36.343770	-174.977900	 11.719590	-35.776660	 7.371307	 85.220820	 76.993510	-87.407490	 2.336285	 35.964000	 0.173968	-8.221157	 6.860060	 2.095398	-1.847532	 2.146972	-0.611265	 2.882674	-2.591185	 1.304940	-94.537350	 59.006740	 174.105400	 26.951050	 41.568080	-21.325530	-4.260820	-2.654905	-40.689090	 0.044246	-7.697756	-7.897649	-4.855190	 20.533250	-3.086678	-3.781296	 22.734050	 2.100940	-4.719405	 6.585663	 0.085278	 0.129650	-5.424233	 0.328328	 1.162559	 1.795127	 2.243560	 89.357570	 61.866280	 178.979800	-15.323140	 55.038730	 4.733408	-6.974320	-2.547497	 8.629016	-4.933512	 11.184130	-4.384374	 6.170504	 15.616830	-0.607949	 2.913535	 34.823580	-7.883217	 2.471904	 15.106400	 2.710385
-0.067712	-2.405434	 1.233336	 7.344754	 0.674858	-2.755264	-2.615494	-0.597153	-172.835400	 1.840928	-26.619440	 0.666928	 14.324330	 64.309460	-17.958530	-2.174572	 48.183930	-0.521701	-4.415359	-35.906230	-175.373700	 7.280003	-26.973380	 3.664915	 27.922820	 70.918250	-26.168600	 2.340599	 35.450450	 0.161421	-9.263890	 6.817367	 1.203156	-1.728300	 3.753655	-0.338296	 2.922672	-3.524278	 1.085510	-94.460840	 59.352950	 174.211500	 24.737210	 40.404970	-23.161840	-4.550050	-2.564264	-42.509160	-0.920011	-10.677710	-8.489379	-4.891781	 20.703270	-3.352936	-3.754962	 23.058530	 2.074211	-4.641453	 7.485539	 0.030484	 0.251453	-5.476376	 0.245353	 1.475890	 1.789085	 2.278243	 89.353960	 61.446980	 178.986600	-13.748380	 54.969040	 0.882514	-8.470434	-3.158060	 9.724364	-5.486865	 8.460946	-5.587050	 6.262141	 12.208600	-0.014234	 3.119845	 32.396700	-8.053808	 3.086653	 11.965390	 2.498139
-0.075869	-2.470960	 1.223516	 8.901601	-0.359733	-1.435556	-2.244311	 3.711788	-175.491100	 0.020599	-27.420560	-0.152952	 9.601048	 51.269870	-9.854710	-1.740517	 61.732780	-1.145151	-2.369526	-37.616210	-175.060100	 6.686099	-23.433810	 2.974507	 2.499597	 52.512850	 3.024235	 2.337430	 35.828810	 0.170655	-10.703950	 7.016632	-0.043616	-1.838069	 6.583154	-0.039070	 2.491146	-5.072513	 0.693713	-94.350510	 59.102790	 174.488700	 22.658830	 39.037730	-25.013310	-4.902277	-2.395839	-44.426500	-1.136346	-11.726700	-8.297385	-4.875381	 21.030350	-3.366191	-3.717817	 23.511470	 2.036498	-4.548592	 8.542106	-0.035599	 0.386184	-5.384819	 0.279149	 1.423059	 1.916744	 2.432770	 89.152890	 61.272750	 178.519800	-12.478630	 54.582280	-2.072774	-8.623063	-3.372414	 10.277770	-6.122883	 4.991101	-4.452813	 6.352279	 9.378557	 0.427702	 3.342768	 29.574390	-8.234152	 3.512849	 9.729572	 2.369328
-0.084915	-2.535239	 1.212388	 10.043390	-0.889014	-0.121833	 1.453984	 7.224697	-179.515600	 1.435547	-28.551320	 0.517577	 4.799062	 32.463560	-0.750362	-1.189031	 69.441280	-1.799127	-4.397369	-40.301170	-176.941200	 6.857038	-22.799430	 2.965695	 0.335518	 38.693360	 5.518013	 2.359194	 32.966830	 0.102455	-11.392120	 6.917504	-0.909402	-2.133434	 8.733766	-0.522920	 1.805301	-6.292931	 0.570713	-94.168760	 59.639160	 174.797100	 21.708190	 38.758980	-27.085060	-4.222460	-3.157223	-45.278820	-0.495213	-13.050090	-9.023960	-4.793547	 21.345130	-2.982692	-3.651490	 24.306800	 1.969200	-4.487504	 9.227930	-0.079524	 0.374078	-5.354324	 0.205662	 0.964181	 2.043929	 2.313210	 89.006680	 60.543620	 178.220600	-11.703640	 53.601850	-5.054786	-7.277413	-3.656987	 12.055790	-5.418051	 0.947431	-2.633129	 6.385356	 8.748483	 0.566412	 3.388251	 28.971670	-8.270384	 3.664361	 8.924361	 2.327281
-0.095362	-2.625859	 1.201298	 8.439419	-1.630299	 1.250498	 11.570540	 12.387980	 173.602400	-0.169478	-27.881410	-0.244203	 7.047185	 19.464280	 1.684876	-2.374073	 30.808130	-0.051766	-4.736328	-37.902190	 179.463500	 4.993959	-19.237350	 1.900840	 1.013364	 32.665200	 7.112209	 2.374338	 30.483820	 0.045989	-10.351770	 7.288177	-1.844425	-2.531288	 9.055051	-0.910232	 1.158444	-6.786481	 0.107027	-94.036550	 59.732700	 175.070600	 20.626640	 39.396890	-27.118680	-3.106113	-4.292025	-45.281610	-0.338849	-16.585500	-8.638429	-4.728934	 21.948440	-2.783666	-3.570902	 25.250240	 1.887466	-4.415961	 10.021970	-0.131434	 0.258379	-5.406971	 0.171416	 0.052497	 1.849000	 2.412264	 89.117410	 60.271120	 178.488200	-12.014650	 52.956890	-6.765512	-5.817652	-3.335578	 12.113230	-4.171627	-5.059569	-0.796495	 6.406311	 10.396910	 0.642699	 3.266384	 30.565800	-8.172855	 3.534893	 9.612751	 2.363091
-0.105219	-2.732705	 1.193672	 6.246045	-2.600128	 1.864509	 15.935660	 17.453950	 169.467600	-2.894702	-27.894250	-1.520548	 9.288416	 28.628070	-1.997789	-2.381081	 29.471270	-0.022169	-3.728748	-33.778160	 176.305400	 4.346627	-20.597260	 1.799942	 0.759164	 37.490800	 9.232277	 2.374318	 30.486270	 0.046044	-8.970365	 7.855110	-2.156745	-3.176179	 7.715271	-1.557345	 0.471551	-6.404679	 0.039044	-93.920900	 59.485780	 175.356500	 20.412500	 40.766480	-24.448670	-2.156458	-5.287731	-45.426810	-1.249176	-21.940460	-7.921742	-4.621412	 23.399910	-2.573821	-3.484432	 26.235610	 1.799806	-4.280557	 11.497090	-0.230914	 0.109343	-5.286047	 0.047320	-1.099617	 1.449054	 2.224219	 89.438130	 60.188950	 179.219800	-13.639010	 52.825180	-6.855743	-3.724037	-2.732574	 11.600480	-2.730572	-12.655610	 0.139059	 6.379705	 13.608240	 0.499605	 2.997777	 33.853120	-7.953277	 3.108474	 11.852010	 2.491175
